<mxfile host="app.diagrams.net" modified="2023-07-20T10:22:05.920Z" agent="Mozilla/5.0 (Macintosh; Intel Mac OS X 10_15_7) AppleWebKit/537.36 (KHTML, like Gecko) Chrome/114.0.0.0 Safari/537.36" etag="hL_O-mUSuxJ1jj9bw9Qk" version="21.6.3" type="device">
  <diagram name="Page-1" id="EOmVhAcMsrK23btyljUI">
    <mxGraphModel dx="2522" dy="1345" grid="1" gridSize="10" guides="1" tooltips="1" connect="1" arrows="1" fold="1" page="1" pageScale="1" pageWidth="827" pageHeight="1169" math="0" shadow="0">
      <root>
        <mxCell id="0" />
        <mxCell id="1" parent="0" />
        <mxCell id="bJhGB-E1iheekT7-a5H4-14" value="" style="rounded=1;whiteSpace=wrap;html=1;" parent="1" vertex="1">
          <mxGeometry x="100" y="50" width="540" height="460" as="geometry" />
        </mxCell>
        <mxCell id="bJhGB-E1iheekT7-a5H4-1" value="" style="sketch=0;points=[[0,0,0],[0.25,0,0],[0.5,0,0],[0.75,0,0],[1,0,0],[0,1,0],[0.25,1,0],[0.5,1,0],[0.75,1,0],[1,1,0],[0,0.25,0],[0,0.5,0],[0,0.75,0],[1,0.25,0],[1,0.5,0],[1,0.75,0]];outlineConnect=0;fontColor=#232F3E;gradientColor=#60A337;gradientDirection=north;fillColor=#277116;strokeColor=#ffffff;dashed=0;verticalLabelPosition=bottom;verticalAlign=top;align=center;html=1;fontSize=12;fontStyle=0;aspect=fixed;shape=mxgraph.aws4.resourceIcon;resIcon=mxgraph.aws4.s3;" parent="1" vertex="1">
          <mxGeometry x="530" y="272.5" width="78" height="78" as="geometry" />
        </mxCell>
        <mxCell id="bJhGB-E1iheekT7-a5H4-2" value="" style="outlineConnect=0;dashed=0;verticalLabelPosition=bottom;verticalAlign=top;align=center;html=1;shape=mxgraph.aws3.elastic_beanstalk;fillColor=#F58534;gradientColor=none;" parent="1" vertex="1">
          <mxGeometry x="300" y="267" width="67.5" height="93" as="geometry" />
        </mxCell>
        <mxCell id="bJhGB-E1iheekT7-a5H4-3" value="S3" style="text;html=1;strokeColor=none;fillColor=none;align=center;verticalAlign=middle;whiteSpace=wrap;rounded=0;fontStyle=1" parent="1" vertex="1">
          <mxGeometry x="539" y="242" width="60" height="30" as="geometry" />
        </mxCell>
        <mxCell id="bJhGB-E1iheekT7-a5H4-4" value="Ionic/Angular FrontEnd&amp;amp;Images Hosting" style="text;html=1;strokeColor=none;fillColor=none;align=center;verticalAlign=middle;whiteSpace=wrap;rounded=0;" parent="1" vertex="1">
          <mxGeometry x="533.5" y="350.5" width="71" height="49.5" as="geometry" />
        </mxCell>
        <mxCell id="bJhGB-E1iheekT7-a5H4-5" value="&lt;b&gt;EB&lt;/b&gt;" style="text;html=1;strokeColor=none;fillColor=none;align=center;verticalAlign=middle;whiteSpace=wrap;rounded=0;" parent="1" vertex="1">
          <mxGeometry x="303.75" y="242" width="60" height="30" as="geometry" />
        </mxCell>
        <mxCell id="bJhGB-E1iheekT7-a5H4-6" value="Node.js &#xa;Backend API &#xa;Hosting" style="text;whiteSpace=wrap;align=center;" parent="1" vertex="1">
          <mxGeometry x="283.75" y="360" width="100" height="60" as="geometry" />
        </mxCell>
        <mxCell id="bJhGB-E1iheekT7-a5H4-9" value="" style="shape=flexArrow;endArrow=classic;html=1;rounded=0;exitX=0.778;exitY=0.57;exitDx=0;exitDy=0;exitPerimeter=0;" parent="1" source="bJhGB-E1iheekT7-a5H4-14" target="bJhGB-E1iheekT7-a5H4-2" edge="1">
          <mxGeometry width="50" height="50" relative="1" as="geometry">
            <mxPoint x="510" y="312" as="sourcePoint" />
            <mxPoint x="440" y="660" as="targetPoint" />
          </mxGeometry>
        </mxCell>
        <mxCell id="bJhGB-E1iheekT7-a5H4-11" value="" style="shape=flexArrow;endArrow=classic;startArrow=classic;html=1;rounded=0;" parent="1" source="bJhGB-E1iheekT7-a5H4-2" target="bJhGB-E1iheekT7-a5H4-18" edge="1">
          <mxGeometry width="100" height="100" relative="1" as="geometry">
            <mxPoint x="360" y="730" as="sourcePoint" />
            <mxPoint x="460" y="630" as="targetPoint" />
          </mxGeometry>
        </mxCell>
        <mxCell id="bJhGB-E1iheekT7-a5H4-12" value="" style="image;points=[];aspect=fixed;html=1;align=center;shadow=0;dashed=0;image=img/lib/allied_telesis/computer_and_terminals/Personal_Computer_Wireless.svg;" parent="1" vertex="1">
          <mxGeometry x="760" y="272" width="63" height="64.2" as="geometry" />
        </mxCell>
        <mxCell id="bJhGB-E1iheekT7-a5H4-13" value="" style="shape=flexArrow;endArrow=classic;html=1;rounded=0;" parent="1" edge="1">
          <mxGeometry width="50" height="50" relative="1" as="geometry">
            <mxPoint x="740" y="310" as="sourcePoint" />
            <mxPoint x="640" y="310" as="targetPoint" />
          </mxGeometry>
        </mxCell>
        <mxCell id="bJhGB-E1iheekT7-a5H4-15" value="End User" style="text;html=1;strokeColor=none;fillColor=none;align=center;verticalAlign=middle;whiteSpace=wrap;rounded=0;" parent="1" vertex="1">
          <mxGeometry x="763" y="344.5" width="60" height="30" as="geometry" />
        </mxCell>
        <mxCell id="bJhGB-E1iheekT7-a5H4-16" value="Visiting website&#xa;Upload Images" style="text;whiteSpace=wrap;" parent="1" vertex="1">
          <mxGeometry x="660" y="315.5" width="90" height="40" as="geometry" />
        </mxCell>
        <mxCell id="bJhGB-E1iheekT7-a5H4-18" value="" style="outlineConnect=0;dashed=0;verticalLabelPosition=bottom;verticalAlign=top;align=center;html=1;shape=mxgraph.aws3.rds_db_instance_read_replica;fillColor=#2E73B8;gradientColor=none;" parent="1" vertex="1">
          <mxGeometry x="120" y="278.5" width="60" height="66" as="geometry" />
        </mxCell>
        <mxCell id="bJhGB-E1iheekT7-a5H4-22" value="Postgres DB" style="text;whiteSpace=wrap;" parent="1" vertex="1">
          <mxGeometry x="120" y="350.5" width="90" height="40" as="geometry" />
        </mxCell>
        <mxCell id="bJhGB-E1iheekT7-a5H4-23" value="" style="outlineConnect=0;dashed=0;verticalLabelPosition=bottom;verticalAlign=top;align=center;html=1;shape=mxgraph.aws3.cloud_2;fillColor=#F58534;gradientColor=none;" parent="1" vertex="1">
          <mxGeometry x="105" y="20" width="75" height="75" as="geometry" />
        </mxCell>
        <mxCell id="bJhGB-E1iheekT7-a5H4-25" value="Fetch/Push Data" style="text;html=1;strokeColor=none;fillColor=none;align=center;verticalAlign=middle;whiteSpace=wrap;rounded=0;" parent="1" vertex="1">
          <mxGeometry x="414" y="320.5" width="60" height="30" as="geometry" />
        </mxCell>
        <mxCell id="bJhGB-E1iheekT7-a5H4-26" value="Load/Save&lt;br&gt;Data" style="text;html=1;strokeColor=none;fillColor=none;align=center;verticalAlign=middle;whiteSpace=wrap;rounded=0;" parent="1" vertex="1">
          <mxGeometry x="210" y="323" width="60" height="30" as="geometry" />
        </mxCell>
        <mxCell id="bJhGB-E1iheekT7-a5H4-30" value="AWS Cloud" style="text;html=1;strokeColor=none;fillColor=none;align=center;verticalAlign=middle;whiteSpace=wrap;rounded=0;fontStyle=1;fontSize=19;" parent="1" vertex="1">
          <mxGeometry x="283.75" y="470" width="140" height="50" as="geometry" />
        </mxCell>
        <mxCell id="fy2tqqkMklNVg-PlzqiI-2" value="RDS" style="text;whiteSpace=wrap;" vertex="1" parent="1">
          <mxGeometry x="130" y="248.5" width="40" height="30" as="geometry" />
        </mxCell>
      </root>
    </mxGraphModel>
  </diagram>
</mxfile>
